<svg width="125" height="29" viewBox="0 0 125 29" fill="none" xmlns="http://www.w3.org/2000/svg">
<path d="M28.7499 21.25C29.8885 21.081 30.9284 20.5082 31.6797 19.6362C32.4311 18.7642 32.8439 17.6511 32.8428 16.5C32.8486 15.0551 33.3727 13.6602 34.32 12.5691C35.2673 11.478 36.5747 10.7632 38.0045 10.5546L40.0549 10.2617C39.9995 10.1984 39.952 10.135 39.8887 10.0717C37.3078 7.49085 32.352 8.26669 28.8053 11.7975C25.8049 14.8375 24.7916 18.875 26.1849 21.6142L28.7499 21.25Z" fill="#4A2632"/>
<path d="M34.0778 16.5C34.0726 17.9447 33.5499 19.3396 32.6043 20.4318C31.6588 21.5241 30.3531 22.2413 28.9241 22.4533L26.9766 22.7304L27.0953 22.865C29.6761 25.4458 34.632 24.6779 38.1786 21.1471C41.1632 18.1704 42.2082 14.125 40.8228 11.4254L38.1786 11.8054C37.0473 11.9698 36.0121 12.5333 35.26 13.3943C34.5079 14.2553 34.0886 15.3569 34.0778 16.5Z" fill="#4A2632"/>
<g clip-path="url(#clip0_586_252)">
<path d="M18.8017 21.0333C18.8594 19.5804 18.3927 18.1553 17.4869 17.0179C16.5812 15.8805 15.2966 15.1067 13.8678 14.8377C12.0758 14.4912 10.4677 13.513 9.33601 12.0811C8.20432 10.6491 7.6242 8.85848 7.70117 7.03493L7.81924 4.4213C7.72762 4.4752 7.63786 4.51928 7.54438 4.58301C3.73503 7.17994 3.53387 13.513 7.08302 18.7442C10.1513 23.1822 14.9243 25.3882 18.6512 24.3023L18.8017 21.0333Z" fill="#4A2632"/>
<path d="M14.1578 13.3049C15.9496 13.6507 17.5582 14.6272 18.6917 16.0573C19.8252 17.4874 20.4086 19.2763 20.3361 21.0997L20.2226 23.5819L20.4175 23.4662C24.2269 20.8692 24.4378 14.538 20.8887 9.30681C17.8953 4.90338 13.1199 2.65619 9.44397 3.74156L9.29451 7.11257C9.23275 8.55528 9.68905 9.97251 10.581 11.1082C11.4729 12.2438 12.7416 13.023 14.1578 13.3049Z" fill="#4A2632"/>
</g>
<path d="M59.604 11.308C59.16 11.08 58.674 10.882 58.146 10.714C57.618 10.546 57.102 10.462 56.598 10.462C55.902 10.462 55.344 10.624 54.924 10.948C54.516 11.272 54.312 11.704 54.312 12.244C54.312 12.652 54.444 13 54.708 13.288C54.972 13.564 55.32 13.804 55.752 14.008C56.184 14.212 56.634 14.404 57.102 14.584C57.51 14.74 57.912 14.914 58.308 15.106C58.704 15.298 59.058 15.538 59.37 15.826C59.694 16.114 59.946 16.468 60.126 16.888C60.318 17.308 60.414 17.83 60.414 18.454C60.414 19.138 60.24 19.762 59.892 20.326C59.556 20.89 59.07 21.334 58.434 21.658C57.798 21.982 57.042 22.144 56.166 22.144C55.59 22.144 55.038 22.078 54.51 21.946C53.994 21.814 53.514 21.646 53.07 21.442C52.626 21.226 52.23 21.004 51.882 20.776L52.656 19.408C52.944 19.612 53.274 19.81 53.646 20.002C54.018 20.182 54.408 20.332 54.816 20.452C55.224 20.56 55.62 20.614 56.004 20.614C56.412 20.614 56.814 20.542 57.21 20.398C57.618 20.242 57.954 20.008 58.218 19.696C58.482 19.384 58.614 18.97 58.614 18.454C58.614 18.01 58.494 17.644 58.254 17.356C58.026 17.056 57.72 16.804 57.336 16.6C56.952 16.384 56.544 16.192 56.112 16.024C55.704 15.868 55.29 15.7 54.87 15.52C54.45 15.328 54.06 15.1 53.7 14.836C53.34 14.56 53.052 14.224 52.836 13.828C52.62 13.432 52.512 12.952 52.512 12.388C52.512 11.704 52.674 11.11 52.998 10.606C53.334 10.09 53.79 9.688 54.366 9.4C54.942 9.1 55.602 8.938 56.346 8.914C57.186 8.914 57.924 9.016 58.56 9.22C59.208 9.424 59.778 9.676 60.27 9.976L59.604 11.308ZM70.5386 15.502C70.5386 14.602 70.7066 13.756 71.0426 12.964C71.3906 12.16 71.8706 11.452 72.4826 10.84C73.0946 10.216 73.7966 9.73 74.5886 9.382C75.3926 9.022 76.2566 8.842 77.1806 8.842C78.0926 8.842 78.9446 9.022 79.7366 9.382C80.5406 9.73 81.2486 10.216 81.8606 10.84C82.4846 11.452 82.9706 12.16 83.3186 12.964C83.6666 13.756 83.8406 14.602 83.8406 15.502C83.8406 16.426 83.6666 17.29 83.3186 18.094C82.9706 18.898 82.4846 19.606 81.8606 20.218C81.2486 20.818 80.5406 21.292 79.7366 21.64C78.9446 21.976 78.0926 22.144 77.1806 22.144C76.2566 22.144 75.3926 21.976 74.5886 21.64C73.7966 21.304 73.0946 20.836 72.4826 20.236C71.8706 19.636 71.3906 18.934 71.0426 18.13C70.7066 17.326 70.5386 16.45 70.5386 15.502ZM72.3386 15.52C72.3386 16.204 72.4646 16.846 72.7166 17.446C72.9686 18.034 73.3166 18.556 73.7606 19.012C74.2046 19.468 74.7206 19.828 75.3086 20.092C75.8966 20.344 76.5326 20.47 77.2166 20.47C77.8886 20.47 78.5186 20.344 79.1066 20.092C79.6946 19.828 80.2046 19.468 80.6366 19.012C81.0686 18.556 81.4106 18.034 81.6626 17.446C81.9146 16.846 82.0406 16.198 82.0406 15.502C82.0406 14.818 81.9146 14.176 81.6626 13.576C81.4106 12.964 81.0626 12.43 80.6186 11.974C80.1746 11.518 79.6586 11.164 79.0706 10.912C78.4826 10.648 77.8526 10.516 77.1806 10.516C76.4966 10.516 75.8606 10.648 75.2726 10.912C74.6846 11.176 74.1686 11.536 73.7246 11.992C73.2806 12.448 72.9386 12.982 72.6986 13.594C72.4586 14.194 72.3386 14.836 72.3386 15.52ZM98.2382 8.986C98.8982 8.986 99.5042 9.076 100.056 9.256C100.62 9.424 101.106 9.682 101.514 10.03C101.934 10.366 102.258 10.786 102.486 11.29C102.726 11.782 102.846 12.358 102.846 13.018C102.846 13.534 102.768 14.038 102.612 14.53C102.468 15.022 102.222 15.472 101.874 15.88C101.526 16.276 101.07 16.6 100.506 16.852C99.9542 17.092 99.2702 17.212 98.4542 17.212H96.5282V22H94.7822V8.986H98.2382ZM98.4182 15.538C98.9342 15.538 99.3602 15.46 99.6962 15.304C100.044 15.148 100.314 14.95 100.506 14.71C100.698 14.458 100.836 14.188 100.92 13.9C101.004 13.612 101.046 13.342 101.046 13.09C101.046 12.826 100.998 12.556 100.902 12.28C100.818 11.992 100.674 11.728 100.47 11.488C100.278 11.248 100.02 11.05 99.6962 10.894C99.3842 10.738 99.0002 10.66 98.5442 10.66H96.5282V15.538H98.4182ZM100.56 16.528L103.962 22H101.946L98.4902 16.582L100.56 16.528ZM114.647 8.986H123.107V10.66H116.393V14.62H122.387V16.294H116.393V20.326H123.359V22H114.647V8.986Z" fill="#A08986"/>
<defs>
<clipPath id="clip0_586_252">
<rect width="24" height="24" fill="white" transform="translate(0 23.5814) rotate(-79.2833)"/>
</clipPath>
</defs>
</svg>
